# xmcd
#
# Track frame offsets:
#   150
#   12653
#   26517
#   41182
#   53113
#   66498
#   80921
#   95185
#   110889
#   121980
#   136399
#   155761
#   169656
#   188322
#   200352
#   216095
#   228890
#   239076
#   250715
#   264384
#   279036
#   293612
#
# Disc length: 4171 seconds
#
# Revision: 0
# Processed by: cddbd v1.5.1PL0 Copyright (c) Steve Scherf et al.
# Submitted via: Media_Universe 3.0
#
DISCID=45104916
DTITLE=Rick Trevino - Rick Trevino and Looking For The Light
DYEAR=1900
DGENRE=Country
TTITLE0=Honky Tonk Crowd
TTITLE1=Doctor Time
TTITLE2=She Cant Say I Didnt Cry
TTITLE3=Walk Out Backwards
TTITLE4=Life Can Turn On A Dime
TTITLE5=Just Enough Rope
TTITLE6=She Just Left Me Lounge
TTITLE7=What I 'll Know Then
TTITLE8=It Only Hurts When I Laugh
TTITLE9=Un Momento Alla
TTITLE10=Just Enough Rope
TTITLE11=Full Deck Of Cards
TTITLE12=Looking For The Light
TTITLE13=Family Reunion
TTITLE14=You Are To Me
TTITLE15=You Used To Say That To Me
TTITLE16=Poor Broke Mixed Up Mess Of A Heart
TTITLE17=I Want A Girl In A Pick- Up Truck
TTITLE18=Save This One For Me
TTITLE19=The Pain
TTITLE20=Bobbie Ann Mason
TTITLE21=San Antonio Rose To You
EXTD=
EXTT0=
EXTT1=
EXTT2=
EXTT3=
EXTT4=
EXTT5=
EXTT6=
EXTT7=
EXTT8=
EXTT9=
EXTT10=
EXTT11=
EXTT12=
EXTT13=
EXTT14=
EXTT15=
EXTT16=
EXTT17=
EXTT18=
EXTT19=
EXTT20=
EXTT21=
PLAYORDER=
